<svg xmlns="http://www.w3.org/2000/svg" viewBox="0 0 640 400" role="img" aria-labelledby="title desc">
  <title id="title">Une forte conflictualité institutionnelle</title>
  <desc id="desc">Référendum, institutions françaises et débat autour du cadre européen</desc>
  <rect width="640" height="400" fill="#F5D7DF"/>
  <g fill="none" stroke="#32101B" stroke-width="6" stroke-linecap="round" stroke-linejoin="round">
    
      <path d="M198 330h244M220 330V220h200v110M220 220l100-59 100 59M260 246v58M320 246v58M380 246v58"/>
      <rect x="263" y="88" width="114" height="72" rx="6" fill="#fff" opacity=".5"/><path d="m280 88 40-42 40 42M291 122h58M320 122v38"/>
      <path d="M43 96q55-47 111 0v72q-55 31-111 0Z"/><path d="m66 132 22 20 45-55"/>
      <circle cx="521" cy="127" r="69"/>
      <circle cx="521" cy="77" r="5" fill="#D31D50" stroke="none"/><circle cx="556" cy="92" r="5" fill="#D31D50" stroke="none"/><circle cx="571" cy="127" r="5" fill="#D31D50" stroke="none"/><circle cx="556" cy="162" r="5" fill="#D31D50" stroke="none"/><circle cx="521" cy="177" r="5" fill="#D31D50" stroke="none"/><circle cx="486" cy="162" r="5" fill="#D31D50" stroke="none"/><circle cx="471" cy="127" r="5" fill="#D31D50" stroke="none"/><circle cx="486" cy="92" r="5" fill="#D31D50" stroke="none"/>
      <path d="M160 173q34 16 55 47M480 182q-34 13-58 39"/>
      <path d="m278 184 22 13-18 17 26 12M362 184l-22 13 18 17-26 12" stroke="#D31D50" stroke-width="9"/>
    
  </g>
</svg>
